<?xml version="1.0" standalone="no"?>
<!DOCTYPE svg PUBLIC "-//W3C//DTD SVG 20010904//EN"
 "http://www.w3.org/TR/2001/REC-SVG-20010904/DTD/svg10.dtd">
<svg version="1.0" xmlns="http://www.w3.org/2000/svg"
 width="512.000000pt" height="512.000000pt" viewBox="0 0 512.000000 512.000000"
 preserveAspectRatio="xMidYMid meet">
<metadata>
Created by potrace 1.14, written by Peter Selinger 2001-2017
</metadata>
<g transform="translate(0.000000,512.000000) scale(0.100000,-0.100000)"
fill="#000000" stroke="none">
<path d="M2210 5100 c-468 -69 -863 -236 -1230 -520 -112 -87 -346 -318 -415
-410 -27 -36 -52 -67 -55 -70 -11 -10 -80 -111 -130 -190 -138 -220 -279 -567
-324 -795 -4 -16 -9 -41 -11 -55 -33 -164 -38 -221 -40 -465 -3 -209 0 -285
15 -385 65 -451 224 -833 499 -1200 95 -128 304 -344 426 -442 359 -288 770
-471 1225 -544 144 -23 577 -28 710 -9 52 8 114 17 137 20 33 5 184 42 283 69
102 28 337 123 426 172 27 15 78 43 114 62 358 198 717 555 936 932 57 98 154
295 154 313 0 7 4 17 9 22 14 16 87 241 115 360 52 215 64 334 61 625 -2 146
-6 281 -9 300 -4 19 -14 73 -22 120 -28 159 -91 382 -139 495 -159 372 -315
608 -574 865 -69 69 -140 136 -156 150 -42 35 -226 172 -250 187 -11 7 -51 31
-90 54 -239 145 -526 255 -815 313 -193 38 -189 38 -470 41 -210 2 -289 -1
-380 -15z"/>
</g>
</svg>
